<?xml version="1.0" encoding="UTF-8" standalone="no"?>
<!DOCTYPE svg PUBLIC "-//W3C//DTD SVG 1.1//EN"
 "http://www.w3.org/Graphics/SVG/1.1/DTD/svg11.dtd">
<!-- Generated by graphviz version 2.43.0 (0)
 -->
<!-- Title: /graph Pages: 1 -->
<svg width="374pt" height="136pt"
 viewBox="0.00 0.00 374.00 135.88" xmlns="http://www.w3.org/2000/svg" xmlns:xlink="http://www.w3.org/1999/xlink">
<g id="graph0" class="graph" transform="scale(1 1) rotate(0) translate(4 131.88)">
<title>/graph</title>
<polygon fill="white" stroke="transparent" points="-4,4 -4,-131.88 370,-131.88 370,4 -4,4"/>
<text text-anchor="middle" x="183" y="-7.8" font-family="Times,serif" font-size="14.00">/graph</text>
<!-- UniversalRobot -->
<g id="node1" class="node">
<title>UniversalRobot</title>
<polygon fill="cyan" stroke="black" points="128,-73.88 0,-73.88 0,-37.88 128,-37.88 128,-73.88"/>
<text text-anchor="middle" x="64" y="-52.18" font-family="Times,serif" font-size="14.00">UniversalRobot</text>
</g>
<!-- error -->
<g id="node3" class="node">
<title>error</title>
<polygon fill="cyan" stroke="black" points="240.5,-127.88 186.5,-127.88 186.5,-91.88 240.5,-91.88 240.5,-127.88"/>
<text text-anchor="middle" x="213.5" y="-106.18" font-family="Times,serif" font-size="14.00">error</text>
</g>
<!-- UniversalRobot&#45;&gt;error -->
<g id="edge3" class="edge">
<title>UniversalRobot&#45;&gt;error</title>
<path fill="none" stroke="black" d="M114.53,-74.02C134.96,-81.5 158.18,-90 176.88,-96.85"/>
<polygon fill="black" stroke="black" points="175.9,-100.21 186.49,-100.36 178.3,-93.64 175.9,-100.21"/>
<text text-anchor="middle" x="178.49" y="-94.76" font-family="Times,serif" font-size="7.00" fill="red">sin1</text>
<text text-anchor="middle" x="105.03" y="-76.42" font-family="Times,serif" font-size="7.00" fill="red">state</text>
</g>
<!-- ur_dynamic -->
<g id="node4" class="node">
<title>ur_dynamic</title>
<polygon fill="cyan" stroke="black" points="263,-73.88 164,-73.88 164,-37.88 263,-37.88 263,-73.88"/>
<text text-anchor="middle" x="213.5" y="-52.18" font-family="Times,serif" font-size="14.00">ur_dynamic</text>
</g>
<!-- UniversalRobot&#45;&gt;ur_dynamic -->
<g id="edge4" class="edge">
<title>UniversalRobot&#45;&gt;ur_dynamic</title>
<path fill="none" stroke="black" d="M128.41,-55.88C136.85,-55.88 145.47,-55.88 153.82,-55.88"/>
<polygon fill="black" stroke="black" points="153.85,-59.38 163.85,-55.88 153.85,-52.38 153.85,-59.38"/>
<text text-anchor="middle" x="148.85" y="-58.28" font-family="Times,serif" font-size="7.00" fill="red">position</text>
<text text-anchor="middle" x="137.91" y="-50.28" font-family="Times,serif" font-size="7.00" fill="red">state</text>
</g>
<!-- control -->
<g id="node2" class="node">
<title>control</title>
<polygon fill="cyan" stroke="black" points="366,-77.88 299,-77.88 299,-41.88 366,-41.88 366,-77.88"/>
<text text-anchor="middle" x="332.5" y="-56.18" font-family="Times,serif" font-size="14.00">control</text>
</g>
<!-- control&#45;&gt;UniversalRobot -->
<g id="edge1" class="edge">
<title>control&#45;&gt;UniversalRobot</title>
<path fill="none" stroke="black" d="M299.03,-41.79C287.94,-36.55 275.25,-31.53 263,-28.88 219.99,-19.61 207.61,-23.04 164,-28.88 153.18,-30.33 141.88,-32.63 130.93,-35.3"/>
<polygon fill="black" stroke="black" points="129.83,-31.97 121.01,-37.83 131.56,-38.75 129.83,-31.97"/>
<text text-anchor="middle" x="108.01" y="-32.23" font-family="Times,serif" font-size="7.00" fill="red">control</text>
<text text-anchor="middle" x="291.03" y="-36.19" font-family="Times,serif" font-size="7.00" fill="red">sout</text>
</g>
<!-- error&#45;&gt;control -->
<g id="edge2" class="edge">
<title>error&#45;&gt;control</title>
<path fill="none" stroke="black" d="M240.76,-98.66C255.06,-92.55 273.11,-84.84 289.33,-77.9"/>
<polygon fill="black" stroke="black" points="290.81,-81.08 298.63,-73.93 288.06,-74.64 290.81,-81.08"/>
<text text-anchor="middle" x="290.63" y="-68.33" font-family="Times,serif" font-size="7.00" fill="red">sin2</text>
<text text-anchor="middle" x="248.76" y="-93.06" font-family="Times,serif" font-size="7.00" fill="red">sout</text>
</g>
</g>
</svg>
